<?xml version="1.0" encoding="UTF-8"?>
<svg xmlns="http://www.w3.org/2000/svg" width="163" height="40" viewBox="0 0 163 40" fill="none">
  <path d="M14.6671 22.6837C15.7456 24.8832 16.3656 27.3885 16.7138 29.3928C17.062 27.397 17.6819 24.8832 18.7605 22.6837C18.9049 22.3949 18.3359 19.8981 16.7138 16.586C15.0832 19.8981 14.5227 22.3949 14.6671 22.6837Z" fill="#681D48"></path>
  <path d="M0.0427551 0.254761V33.6391H33.4271V0.254761H0.0427551ZM32.4674 10.879C25.5035 13.8853 20.0597 20.3397 20.323 22.1826C20.892 26.1656 22.2338 30.4289 21.9111 31.0403C21.5799 31.6518 24.6627 26.4798 31.3464 25.2994C32.7222 25.0531 32.7901 25.6051 31.737 25.8089C27.2784 26.6836 22.3697 32.1189 21.9706 33.0361H11.4568C11.0661 32.1104 6.14891 26.6751 1.69031 25.8089C0.637235 25.6051 0.705176 25.0531 2.08097 25.2994C8.76463 26.4798 11.8389 31.6603 11.5162 31.0403C11.185 30.4289 12.5353 26.1656 13.1043 22.1826C13.3676 20.3482 7.92386 13.8853 0.959953 10.879C0.603265 10.7261 0.628743 10.3015 0.841057 10.3949C11.3973 14.9384 13.4865 20.7898 13.5459 20.535C14.0215 18.6836 14.8708 16.8662 15.9409 15.1253C13.6309 10.9469 9.73278 5.9193 3.62662 2.3864C3.20199 2.14011 3.69456 2.04669 4.21261 2.23353C5.56293 2.70911 12.3994 7.6348 16.7052 13.9363C21.0109 7.6348 27.8474 2.70911 29.1978 2.23353C29.7158 2.04669 30.2084 2.14011 29.7837 2.3864C23.6691 5.91081 19.7795 10.9469 17.4695 15.1253C18.5396 16.8662 19.3888 18.6836 19.8644 20.535C19.9324 20.7898 22.013 14.9469 32.5693 10.3949C32.7816 10.3015 32.8071 10.7261 32.4504 10.879H32.4674Z" fill="#681D48"></path>
  <path fill-rule="evenodd" clip-rule="evenodd" d="M25.5203 39.3121V39.8556C25.6561 39.9066 25.792 39.9406 25.9619 39.9406C26.4969 39.9406 26.8876 39.5754 26.8876 38.2166V38.1147C26.8876 37.0191 26.6243 36.5775 26.1147 36.5775C25.6816 36.5775 25.3589 37.0106 25.3589 37.724V37.792C25.3589 38.5478 25.6646 38.7856 25.9704 38.7856C26.1402 38.7856 26.2506 38.7176 26.344 38.6412C26.3271 39.2357 26.1657 39.4225 25.9024 39.4225C25.775 39.4225 25.6392 39.3716 25.5203 39.3121ZM26.3355 37.8004V38.2336C26.2846 38.2845 26.2167 38.3185 26.1317 38.3185C25.9789 38.3185 25.8854 38.1826 25.8854 37.7835V37.7155C25.8854 37.2739 25.9619 37.1041 26.1062 37.1041C26.2506 37.1041 26.3355 37.2909 26.3355 37.8004ZM22.7516 37.2484L22.4119 37.3588V36.7813L22.9215 36.62H23.3291V39.9236H22.7516V37.2484ZM16.9002 39.2187V39.8132H16.9086C17.07 39.8896 17.2568 39.9491 17.4861 39.9491C17.9362 39.9491 18.3014 39.6094 18.3014 39.0828C18.3014 38.7092 18.1995 38.5053 17.7494 37.9873C17.4776 37.6731 17.4267 37.6136 17.4267 37.4523C17.4267 37.2739 17.5626 37.172 17.7239 37.172C17.8683 37.172 17.9787 37.223 18.1571 37.3249V36.7304C18.0127 36.6624 17.8768 36.6285 17.6475 36.6285C17.1889 36.6285 16.8492 36.9597 16.8492 37.4947C16.8492 37.8939 17.0106 38.1062 17.4012 38.5478C17.673 38.8535 17.7239 38.9639 17.7239 39.1253C17.7239 39.3291 17.5796 39.4055 17.4182 39.4055C17.2653 39.4055 17.104 39.3376 16.9002 39.2187ZM4.96804 36.6455H3.71114L3.70265 36.637V39.9236H4.97654V39.3801H4.28015V38.5478H4.88312V38.0043H4.28015V37.189H4.96804V36.6455ZM0.535032 36.6455H0V39.9321H0.535032C1.26539 39.9321 1.68153 39.3971 1.68153 38.344V38.2336C1.68153 37.172 1.26539 36.6455 0.535032 36.6455ZM1.10403 38.344C1.10403 39.1678 0.866242 39.4055 0.59448 39.4055H0.569002V37.172H0.59448C0.866242 37.172 1.10403 37.4098 1.10403 38.2336V38.344ZM7.00639 36.6455H7.01488V39.9236H7.58389V38.896C8.16138 38.8535 8.57752 38.4968 8.57752 37.7495C8.57752 36.9852 8.1359 36.6455 7.51595 36.6455H7.01488V36.637L7.00639 36.6455ZM7.58389 38.3695C7.82168 38.3525 8.00852 38.1826 8.00852 37.7835C8.00852 37.3588 7.84716 37.1805 7.60087 37.1805H7.58389V38.3695ZM10.5563 36.637V38.9639C10.5563 39.6603 10.9045 39.9661 11.3716 39.9661C11.8387 39.9661 12.1869 39.6518 12.1869 38.9639V36.637H11.6179V39.0234C11.6179 39.3206 11.516 39.4395 11.3716 39.4395C11.2273 39.4395 11.1253 39.3206 11.1253 39.0234V36.637H10.5563ZM14.2846 36.6455H14.8536V39.9321H14.2846V36.6455ZM28.7898 39.4395L29.3418 38.1741C29.5116 37.792 29.5711 37.6051 29.5711 37.4607C29.5711 37.2909 29.4607 37.172 29.2823 37.172C29.121 37.172 28.9851 37.2314 28.8577 37.3079V36.7559C29.0106 36.6794 29.1889 36.62 29.4097 36.62C29.8259 36.62 30.1316 36.8748 30.1316 37.3503V37.3758C30.1316 37.6221 30.0637 37.8259 29.8768 38.2675L29.4097 39.3546H30.1231V39.9236H28.7983V39.4395H28.7898ZM32.0424 39.3206H32.9341V39.9236H33.4691V39.3206H33.7324V38.8281H33.4691V36.637H32.9086L32.0424 38.8875V39.3206ZM32.9341 37.6306V38.8281H32.5095L32.9341 37.6306Z" fill="#681D48"></path>
  <path d="M39.3949 0.254761H38.3016V39.9235H39.3949V0.254761Z" fill="#681D48"></path>
  <path fill-rule="evenodd" clip-rule="evenodd" d="M88.1019 16.6285C85.9703 16.6285 84.9087 16.2718 83.6518 15.1932C82.9639 14.5732 82.5138 14.0127 81.9873 13.0786C78.6412 12.7643 76.6285 10.293 76.6285 6.53928C76.6285 4.48408 77.206 2.81953 78.344 1.68153C79.3886 0.619958 80.9427 0 82.5478 0C84.3397 0 85.9278 0.730361 87.0149 2.0552C87.9661 3.21019 88.4332 4.70488 88.4332 6.53928C88.4332 8.61147 87.8387 10.276 86.7177 11.431C85.9363 12.2123 85.1635 12.6285 83.8217 12.9851C85.189 15.2611 86.344 15.9915 88.7389 16.0849V16.6285H88.1019ZM82.5308 12.4586C83.8387 12.4586 85.0191 11.8047 85.6476 10.7176C86.2421 9.67304 86.5223 8.38217 86.5223 6.60722C86.5223 4.72187 86.2591 3.41401 85.6646 2.4034C85.0276 1.29936 83.8132 0.62845 82.4714 0.62845C81.2399 0.62845 80.1359 1.22293 79.465 2.29299C78.8281 3.32059 78.5308 4.62845 78.5308 6.55626C78.5308 8.29724 78.7346 9.46921 79.2782 10.5138C79.8981 11.7113 81.1465 12.4586 82.5308 12.4586ZM58.2081 0.186834H59.0488L64.2633 12.7813H62.3185L60.6539 8.59448H55.6263L54.0382 12.7813H52.7473L58.2081 0.186834ZM60.4161 7.95753L58.0976 2.10615L55.8726 7.95753H60.4161ZM44.1613 0.314231H47.7452C49.5371 0.314231 50.0807 0.407649 50.9384 0.891726C51.8556 1.39279 52.3737 2.30998 52.3737 3.41402C52.3737 5.06158 51.3121 6.01274 49.104 6.30998V6.34396C49.9618 6.4034 50.3524 6.47134 50.8959 6.70064C52.0509 7.16773 52.7049 8.17835 52.7049 9.46922C52.7049 10.7601 52.017 11.8047 50.777 12.3312C49.9533 12.6709 49.2059 12.7813 47.448 12.7813H44.1443V0.314231H44.1613ZM47.4649 6.07219C49.4607 6.07219 50.5308 5.13801 50.5308 3.38005C50.5308 2.57325 50.2505 1.90234 49.724 1.4947C49.104 1.02761 48.5265 0.900218 47.0488 0.900218H45.8938V6.08069H47.4649V6.07219ZM47.431 12.2038C49.8004 12.2038 50.828 11.3631 50.828 9.41826C50.828 7.47347 49.8174 6.67517 47.5923 6.67517H45.8938V12.2038H47.4225H47.431ZM67.3374 0.314231H65.2483V12.7813H66.0126V1.41827L73.7663 12.8747H74.8534V0.314231H74.106V10.259L67.3374 0.314231ZM98.6582 11.4225C99.2867 10.5817 99.533 9.64756 99.533 7.98302V7.97453V0.314231H98.6922V7.97453C98.6922 9.44374 98.4884 10.31 98.0043 10.9979C97.4098 11.8132 96.3228 12.3397 95.1084 12.3397C93.8939 12.3397 92.8238 11.7962 92.3228 10.9214C91.9661 10.293 91.7793 9.39279 91.7793 8.17835V0.314231H90.0383V7.7792C90.0383 9.40128 90.2081 10.2675 90.6752 11.0488C91.4056 12.3142 92.9343 13.0276 94.8621 13.0276C96.5266 13.0276 97.8769 12.4671 98.6582 11.4225ZM101.936 0.314231H109.563V0.951174H103.677V6.05521H108.926V6.69215H103.677V12.1444H109.86V12.7813H101.936V0.314231ZM47.4649 18.6582H44.2123V31.1253H47.0318C49.69 31.1253 50.794 30.9214 52.0255 30.2081C53.7579 29.1975 54.7516 27.2781 54.7516 24.8662C54.7516 22.6242 53.9108 20.7558 52.4161 19.7452C51.1677 18.879 50.1146 18.6582 47.4649 18.6582ZM51.5754 29.087C50.6836 30.1316 49.5202 30.5053 47.2611 30.5053H45.9533V19.2781H47.5414C49.3588 19.2781 50.5138 19.6093 51.3545 20.4161C52.3227 21.3163 52.8492 22.879 52.8492 24.9002C52.8492 26.7176 52.4161 28.1189 51.5754 29.087ZM56.5265 18.6582H64.1528V19.2951H58.2674V24.3992H63.5158V25.0361H58.2674V30.4883H64.45V31.1253H56.5265V18.6582ZM67.5584 18.6582H65.8174V31.1253H73.2739V30.4713H67.5584V18.6582ZM83.1253 26.3185C83.1253 27.983 82.879 28.9172 82.2506 29.758C81.4693 30.8025 80.1189 31.3631 78.4544 31.3631C76.5266 31.3631 74.9979 30.6497 74.2676 29.3843C73.8005 28.603 73.6306 27.7367 73.6306 26.1146V18.6582H75.3716V26.5223C75.3716 27.7367 75.5584 28.6369 75.9151 29.2654C76.4162 30.1401 77.4862 30.6837 78.7007 30.6837C79.9151 30.6837 81.0022 30.1571 81.5967 29.3418C82.0807 28.6539 82.2845 27.7877 82.2845 26.31V18.6497H83.1253V26.31V26.3185ZM89.0785 18.6582H85.4947H85.4777V31.1253H88.7813C90.5393 31.1253 91.2866 31.0149 92.1104 30.6752C93.3503 30.1486 94.0382 29.104 94.0382 27.8132C94.0382 26.5223 93.3843 25.5117 92.2293 25.0446C91.6857 24.8153 91.2951 24.7473 90.4373 24.6879V24.6539C92.6454 24.3567 93.707 23.4055 93.707 21.758C93.707 20.6539 93.1889 19.7367 92.2717 19.2357C91.414 18.7516 90.8705 18.6582 89.0785 18.6582ZM91.8641 21.724C91.8641 23.482 90.794 24.4161 88.7983 24.4161V24.4246H87.2271V19.2442H88.3821C89.8598 19.2442 90.4373 19.3715 91.0573 19.8386C91.5838 20.2463 91.8641 20.9172 91.8641 21.724ZM92.1613 27.7622C92.1613 29.707 91.1337 30.5478 88.7643 30.5478H88.7558H87.2271V25.0191H88.9257C91.1507 25.0191 92.1613 25.8174 92.1613 27.7622ZM99.5414 18.5308H100.382L105.597 31.1253H103.652L101.987 26.9384H96.9596L95.3715 31.1253H94.0807L99.5329 18.5308H99.5414ZM101.749 26.3015L99.431 20.4501L97.2059 26.3015H101.749ZM114.879 29.6985C115.439 28.9766 115.72 28.2463 115.873 27.0488H114.106C114.047 28.1104 113.902 28.6964 113.563 29.2909C113.078 30.1911 111.991 30.7856 110.853 30.7856C108.493 30.7856 107.244 28.7813 107.244 24.9172C107.244 21.0531 108.501 19.0149 110.87 19.0149C111.966 19.0149 112.994 19.5584 113.52 20.4161C113.877 20.9766 114.021 21.5202 114.098 22.4543H115.873C115.762 21.4862 115.575 20.9087 115.125 20.2887C114.284 19.1338 112.722 18.4204 110.981 18.4204C107.499 18.4204 105.333 20.9087 105.333 24.9002C105.333 28.8917 107.482 31.38 110.955 31.38C112.56 31.38 114.038 30.7431 114.879 29.6985ZM129.232 29.758C128.111 30.896 126.989 31.3631 125.384 31.3631C122.828 31.3631 120.977 29.9023 120.977 27.8896C120.977 27.0149 121.367 26.1911 122.098 25.5711C122.624 25.121 123.015 24.8832 123.983 24.3397C122.735 22.9214 122.378 22.225 122.378 21.1805C122.378 19.5584 123.762 18.4119 125.758 18.4119C127.626 18.4119 128.875 19.4735 128.875 21.0616C128.875 21.9023 128.484 22.6327 127.737 23.1168C127.236 23.4565 126.93 23.6178 125.885 24.0679L129.75 28.0255C130.387 26.811 130.59 25.9533 130.59 24.603H131.338C131.338 25.9278 131.04 26.9724 130.234 28.4926L132.943 31.1083H130.667L129.232 29.741V29.758ZM124.391 24.8068C123.21 25.3843 122.709 26.2081 122.709 27.5499C122.709 29.4352 123.941 30.7856 125.682 30.7856C126.896 30.7856 127.958 30.2845 128.781 29.2909L124.391 24.8068ZM125.919 23.4395C127.006 22.9129 127.601 21.9788 127.601 20.8408C127.601 19.7028 126.871 18.9384 125.792 18.9384C124.713 18.9384 123.958 19.6518 123.958 20.7134C123.958 21.6476 124.204 22.0977 125.486 23.6433L125.919 23.4395ZM146.658 29.6985C147.219 28.9766 147.499 28.2463 147.652 27.0488H145.885C145.826 28.1104 145.682 28.6964 145.342 29.2909C144.858 30.1911 143.771 30.7856 142.633 30.7856C140.272 30.7856 139.023 28.7813 139.023 24.9172C139.023 21.0531 140.28 19.0149 142.65 19.0149C143.745 19.0149 144.773 19.5584 145.299 20.4161C145.656 20.9766 145.801 21.5202 145.877 22.4543H147.652C147.541 21.4862 147.355 20.9087 146.905 20.2887C146.064 19.1338 144.501 18.4204 142.76 18.4204C139.278 18.4204 137.113 20.9087 137.113 24.9002C137.113 28.8917 139.261 31.38 142.735 31.38C144.34 31.38 145.818 30.7431 146.658 29.6985ZM149.469 18.6582H151.21V31.1253H149.469V18.6582ZM161.333 18.6582H153.707V31.1253H161.631V30.4883H155.448V25.0361H160.696V24.3992H155.448V19.2951H161.333V18.6582Z" fill="#676566"></path>
  <path fill-rule="evenodd" clip-rule="evenodd" d="M114.896 36.2548H114.888L114.896 36.2463V36.2548ZM114.896 36.2548H117.138V36.4416H115.406V37.9448H116.952V38.1317H115.406V39.7368H117.232V39.9236H114.896V36.2548ZM117.104 35.1932H116.451L115.856 36.051H116.017L117.104 35.1932ZM76.7054 39.3886C76.6544 39.2442 76.6374 39.1338 76.6204 38.8705H76.1109C76.1279 39.6009 76.5865 39.9915 77.4102 39.9915C78.234 39.9915 78.7181 39.6009 78.7181 38.9469C78.7181 38.6412 78.5907 38.3695 78.3614 38.1826C78.217 38.0722 78.0727 37.9873 77.7415 37.8599L77.3423 37.707C76.8497 37.5117 76.6714 37.3249 76.6714 37.0021C76.6714 36.62 76.9686 36.3482 77.3848 36.3482C77.682 36.3482 77.9368 36.4926 78.0472 36.7389C78.1066 36.8833 78.1321 36.9852 78.1491 37.2314H78.6587C78.6417 36.5435 78.1916 36.1784 77.4272 36.1784C76.6629 36.1784 76.1703 36.569 76.1703 37.1805C76.1703 37.4353 76.2722 37.6476 76.4591 37.8259C76.6119 37.9703 76.7393 38.0382 77.1215 38.1911L77.4697 38.3355C77.7839 38.4629 77.8773 38.5138 77.9962 38.6157C78.1406 38.7516 78.2255 38.9385 78.2255 39.1423C78.2255 39.3461 78.1661 39.4905 78.0472 39.6009C77.8943 39.7452 77.6735 39.8302 77.4357 39.8302C77.0875 39.8302 76.8158 39.6603 76.7054 39.3886ZM44.2212 36.2548H44.2297V39.9236H46.5652V39.7368H44.7393V38.1317H46.2849V37.9448H44.7393V36.4416H46.4717V36.2548H44.2297V36.2463L44.2212 36.2548ZM50.4037 38.1656L49.1893 36.2463H49.8092L50.7859 37.792L51.7201 36.2463H52.1362L50.9218 37.9193L52.1787 39.9151H51.5417L50.5311 38.293L49.546 39.9151H49.1298L50.3952 38.1571L50.4037 38.1656ZM55.9409 36.2548H54.9473V39.9321H55.4569V38.344H55.907C56.4845 38.344 56.7562 38.2845 57.0025 38.1232C57.2573 37.9533 57.3932 37.6646 57.3932 37.2994C57.3932 36.9342 57.2743 36.6709 57.028 36.4926C56.7817 36.3058 56.5184 36.2548 55.9409 36.2548ZM56.8326 37.2994C56.8326 37.8854 56.5609 38.1741 56.0089 38.1741H55.4653V36.4247H56.0089C56.5609 36.4247 56.8326 36.7134 56.8326 37.2994ZM60.2383 36.2548H60.2467V39.9236H62.5822V39.7368H60.7563V38.1317H62.3019V37.9448H60.7563V36.4416H62.4888V36.2548H60.2467V36.2463L60.2383 36.2548ZM66.4802 36.2548H65.4356V39.9321H65.9452V38.2251H66.3104C66.701 38.2251 66.8624 38.2591 66.9898 38.361C67.1002 38.4629 67.1596 38.5903 67.2615 39.0319L67.4738 39.9321H68.0259L67.7541 38.9045C67.6012 38.3355 67.4229 38.1656 66.8709 38.1232C67.5248 38.0298 67.8475 37.7325 67.8475 37.206C67.8475 36.9087 67.7286 36.654 67.4993 36.4926C67.2615 36.3227 66.9813 36.2548 66.4802 36.2548ZM67.304 37.223C67.304 37.758 66.9898 38.0467 66.4462 38.0467H65.9452V36.4247H66.4123C66.7095 36.4247 66.9048 36.4671 67.0492 36.586C67.2021 36.7134 67.304 36.9512 67.304 37.223ZM71.822 36.4416H70.4717V36.2548H73.6734V36.4416H72.3315V39.9321H71.822V36.4416ZM84.9856 36.2548H84.9941V39.9236H87.3296V39.7368H85.5037V38.1317H87.0493V37.9448H85.5037V36.4416H87.2362V36.2548H84.9941V36.2463L84.9856 36.2548ZM89.8348 36.4416H91.1852V39.9321H91.6947V36.4416H93.0365V36.2548H89.8348V36.4416ZM99.0832 36.2548H99.5927V39.9321H99.0832V36.2548ZM103.406 36.2548H102.786V39.9236H103.015V36.5775L105.3 39.9576H105.623V36.2548H105.402V39.1847L103.406 36.2548ZM108.807 36.2548H109.767C110.548 36.2548 110.854 36.3227 111.228 36.5775C111.669 36.8748 111.915 37.4268 111.915 38.0892C111.915 38.8026 111.627 39.3631 111.109 39.6688C110.743 39.8811 110.421 39.9406 109.639 39.9406H108.807V36.2633V36.2548ZM109.707 39.7453C110.37 39.7453 110.718 39.6349 110.981 39.3291C111.228 39.0404 111.355 38.6327 111.355 38.0977C111.355 37.5032 111.202 37.0361 110.913 36.7729C110.667 36.5351 110.327 36.4332 109.792 36.4332H109.325V39.7453H109.707ZM120.077 36.2548H121.07C121.648 36.2548 121.911 36.3058 122.157 36.4926C122.404 36.6709 122.523 36.9342 122.523 37.2994C122.523 37.6646 122.387 37.9533 122.132 38.1232C121.886 38.2845 121.614 38.344 121.036 38.344H120.586V39.9321H120.077V36.2548ZM121.138 38.1741C121.69 38.1741 121.962 37.8854 121.962 37.2994C121.962 36.7134 121.69 36.4247 121.138 36.4247H120.595V38.1741H121.138ZM125.368 36.2548H125.359L125.368 36.2463V36.2548ZM125.368 36.2548H127.61V36.4416H125.877V37.9448H127.423V38.1317H125.877V39.7368H127.703V39.9236H125.368V36.2548ZM130.54 36.2548H131.16L133.155 39.1847V36.2548H133.376V39.9576H133.053L130.769 36.5775V39.9236H130.54V36.2548ZM137.521 36.2548H136.561V36.2633V39.9406H137.393C138.175 39.9406 138.497 39.8811 138.862 39.6688C139.38 39.3631 139.669 38.8026 139.669 38.0892C139.669 37.4268 139.423 36.8748 138.981 36.5775C138.608 36.3227 138.302 36.2548 137.521 36.2548ZM138.735 39.3291C138.472 39.6349 138.124 39.7453 137.461 39.7453H137.079V36.4332H137.546C138.081 36.4332 138.421 36.5351 138.667 36.7729C138.956 37.0361 139.109 37.5032 139.109 38.0977C139.109 38.6327 138.981 39.0404 138.735 39.3291ZM143.635 36.2123H143.882L145.419 39.9236H144.85L144.357 38.6922H142.879L142.412 39.9236H142.03L143.635 36.2123ZM144.289 38.5053L143.61 36.7813L142.956 38.5053H144.289ZM148.773 36.2548H148.153V39.9236H148.383V36.5775L150.667 39.9576H150.99V36.2548H150.769V39.1847L148.773 36.2548ZM155.075 36.4416H153.725V36.2548H156.926V36.4416H155.584V39.9321H155.075V36.4416ZM159.966 39.3886C159.915 39.2442 159.898 39.1338 159.882 38.8705H159.865H159.355C159.372 39.6009 159.831 39.9915 160.654 39.9915C161.478 39.9915 161.962 39.6009 161.962 38.9469C161.962 38.6412 161.835 38.3695 161.605 38.1826C161.461 38.0722 161.317 37.9873 160.986 37.8599L160.586 37.707C160.094 37.5117 159.915 37.3249 159.915 37.0021C159.915 36.62 160.213 36.3482 160.629 36.3482C160.935 36.3482 161.189 36.4926 161.3 36.7389C161.368 36.8833 161.385 36.9852 161.402 37.2314H161.911C161.894 36.5435 161.444 36.1784 160.68 36.1784C159.915 36.1784 159.423 36.569 159.423 37.1805C159.423 37.4353 159.525 37.6476 159.712 37.8259C159.873 37.9703 160 38.0382 160.383 38.1911L160.731 38.3355C161.045 38.4629 161.138 38.5138 161.257 38.6157C161.402 38.7516 161.487 38.9385 161.487 39.1423C161.487 39.3461 161.427 39.4905 161.308 39.6009C161.155 39.7452 160.935 39.8302 160.697 39.8302C160.349 39.8302 160.077 39.6603 159.966 39.3886Z" fill="#676566"></path>
</svg>
